<mxfile host="app.diagrams.net" agent="Mozilla/5.0 (Windows NT 10.0; Win64; x64) AppleWebKit/537.36 (KHTML, like Gecko) Chrome/126.0.0.0 Safari/537.36" version="24.7.6">
  <diagram name="Halaman-1" id="iREMIONczV9B3TtE3j1A">
    <mxGraphModel dx="1781" dy="592" grid="1" gridSize="10" guides="1" tooltips="1" connect="1" arrows="1" fold="1" page="1" pageScale="1" pageWidth="827" pageHeight="1169" math="0" shadow="0">
      <root>
        <mxCell id="0" />
        <mxCell id="1" parent="0" />
        <mxCell id="NptklRIdB0JCrg16FRd6-2" value="mendaptar" style="shape=rhombus;perimeter=rhombusPerimeter;whiteSpace=wrap;html=1;align=center;" vertex="1" parent="1">
          <mxGeometry x="390" y="150" width="90" height="60" as="geometry" />
        </mxCell>
        <mxCell id="NptklRIdB0JCrg16FRd6-3" value="anngota&lt;div&gt;perpustakaan&lt;/div&gt;" style="whiteSpace=wrap;html=1;align=center;" vertex="1" parent="1">
          <mxGeometry x="680" y="160" width="100" height="40" as="geometry" />
        </mxCell>
        <mxCell id="NptklRIdB0JCrg16FRd6-4" value="" style="endArrow=none;html=1;rounded=0;" edge="1" parent="1" source="NptklRIdB0JCrg16FRd6-7" target="NptklRIdB0JCrg16FRd6-2">
          <mxGeometry relative="1" as="geometry">
            <mxPoint x="260" y="180" as="sourcePoint" />
            <mxPoint x="420" y="180" as="targetPoint" />
          </mxGeometry>
        </mxCell>
        <mxCell id="NptklRIdB0JCrg16FRd6-7" value="mahasiswa" style="whiteSpace=wrap;html=1;align=center;" vertex="1" parent="1">
          <mxGeometry x="110" y="160" width="100" height="40" as="geometry" />
        </mxCell>
        <mxCell id="NptklRIdB0JCrg16FRd6-11" value="" style="endArrow=none;html=1;rounded=0;entryX=0;entryY=0.5;entryDx=0;entryDy=0;exitX=1;exitY=0.5;exitDx=0;exitDy=0;" edge="1" parent="1" source="NptklRIdB0JCrg16FRd6-2" target="NptklRIdB0JCrg16FRd6-3">
          <mxGeometry relative="1" as="geometry">
            <mxPoint x="500" y="180" as="sourcePoint" />
            <mxPoint x="570" y="180" as="targetPoint" />
          </mxGeometry>
        </mxCell>
        <mxCell id="NptklRIdB0JCrg16FRd6-12" value="meminjam" style="shape=rhombus;perimeter=rhombusPerimeter;whiteSpace=wrap;html=1;align=center;" vertex="1" parent="1">
          <mxGeometry x="670" y="330" width="120" height="60" as="geometry" />
        </mxCell>
        <mxCell id="NptklRIdB0JCrg16FRd6-13" value="" style="endArrow=none;html=1;rounded=0;entryX=0.5;entryY=1;entryDx=0;entryDy=0;exitX=0.5;exitY=0;exitDx=0;exitDy=0;" edge="1" parent="1" source="NptklRIdB0JCrg16FRd6-12" target="NptklRIdB0JCrg16FRd6-3">
          <mxGeometry relative="1" as="geometry">
            <mxPoint x="580" y="330" as="sourcePoint" />
            <mxPoint x="650" y="250" as="targetPoint" />
          </mxGeometry>
        </mxCell>
        <mxCell id="NptklRIdB0JCrg16FRd6-14" value="buku" style="whiteSpace=wrap;html=1;align=center;" vertex="1" parent="1">
          <mxGeometry x="680" y="510" width="100" height="40" as="geometry" />
        </mxCell>
        <mxCell id="NptklRIdB0JCrg16FRd6-15" value="" style="endArrow=none;html=1;rounded=0;entryX=0.5;entryY=1;entryDx=0;entryDy=0;exitX=0.5;exitY=0;exitDx=0;exitDy=0;" edge="1" parent="1" source="NptklRIdB0JCrg16FRd6-14" target="NptklRIdB0JCrg16FRd6-12">
          <mxGeometry relative="1" as="geometry">
            <mxPoint x="500" y="450" as="sourcePoint" />
            <mxPoint x="660" y="450" as="targetPoint" />
          </mxGeometry>
        </mxCell>
        <mxCell id="NptklRIdB0JCrg16FRd6-16" value="nama_depan" style="ellipse;whiteSpace=wrap;html=1;align=center;rotation=0;" vertex="1" parent="1">
          <mxGeometry x="20" y="60" width="90" height="40" as="geometry" />
        </mxCell>
        <mxCell id="NptklRIdB0JCrg16FRd6-21" value="" style="endArrow=none;html=1;rounded=0;exitX=0.5;exitY=0;exitDx=0;exitDy=0;entryX=0.5;entryY=1;entryDx=0;entryDy=0;" edge="1" parent="1" source="NptklRIdB0JCrg16FRd6-49" target="NptklRIdB0JCrg16FRd6-39">
          <mxGeometry relative="1" as="geometry">
            <mxPoint x="155" y="90" as="sourcePoint" />
            <mxPoint x="155" y="60" as="targetPoint" />
          </mxGeometry>
        </mxCell>
        <mxCell id="NptklRIdB0JCrg16FRd6-25" value="" style="endArrow=none;html=1;rounded=0;entryX=0;entryY=0;entryDx=0;entryDy=0;exitX=1;exitY=0.5;exitDx=0;exitDy=0;" edge="1" parent="1" source="NptklRIdB0JCrg16FRd6-16" target="NptklRIdB0JCrg16FRd6-49">
          <mxGeometry relative="1" as="geometry">
            <mxPoint x="100" y="90" as="sourcePoint" />
            <mxPoint x="130.25126265847098" y="95.85786437626916" as="targetPoint" />
          </mxGeometry>
        </mxCell>
        <mxCell id="NptklRIdB0JCrg16FRd6-27" value="" style="endArrow=none;html=1;rounded=0;exitX=1;exitY=0.5;exitDx=0;exitDy=0;" edge="1" parent="1" source="NptklRIdB0JCrg16FRd6-49" target="NptklRIdB0JCrg16FRd6-45">
          <mxGeometry relative="1" as="geometry">
            <mxPoint x="190" y="110" as="sourcePoint" />
            <mxPoint x="213.18019484660522" y="94.14213562373095" as="targetPoint" />
          </mxGeometry>
        </mxCell>
        <mxCell id="NptklRIdB0JCrg16FRd6-35" value="" style="endArrow=none;html=1;rounded=0;entryX=0;entryY=0.5;entryDx=0;entryDy=0;exitX=1;exitY=1;exitDx=0;exitDy=0;" edge="1" parent="1" source="NptklRIdB0JCrg16FRd6-52" target="NptklRIdB0JCrg16FRd6-7">
          <mxGeometry relative="1" as="geometry">
            <mxPoint x="55.99000000000001" y="157" as="sourcePoint" />
            <mxPoint x="160" y="170" as="targetPoint" />
          </mxGeometry>
        </mxCell>
        <mxCell id="NptklRIdB0JCrg16FRd6-36" value="" style="endArrow=none;html=1;rounded=0;exitX=0.971;exitY=0.35;exitDx=0;exitDy=0;exitPerimeter=0;" edge="1" parent="1" source="NptklRIdB0JCrg16FRd6-46">
          <mxGeometry relative="1" as="geometry">
            <mxPoint x="50" y="190" as="sourcePoint" />
            <mxPoint x="110" y="180" as="targetPoint" />
          </mxGeometry>
        </mxCell>
        <mxCell id="NptklRIdB0JCrg16FRd6-37" value="" style="endArrow=none;html=1;rounded=0;exitX=0.671;exitY=0.075;exitDx=0;exitDy=0;exitPerimeter=0;" edge="1" parent="1" source="NptklRIdB0JCrg16FRd6-48">
          <mxGeometry relative="1" as="geometry">
            <mxPoint x="53.02999999999997" y="212" as="sourcePoint" />
            <mxPoint x="110" y="180" as="targetPoint" />
          </mxGeometry>
        </mxCell>
        <mxCell id="NptklRIdB0JCrg16FRd6-39" value="nama_tengah" style="ellipse;whiteSpace=wrap;html=1;align=center;rotation=0;" vertex="1" parent="1">
          <mxGeometry x="110" y="10" width="90" height="40" as="geometry" />
        </mxCell>
        <mxCell id="NptklRIdB0JCrg16FRd6-41" value="alamat" style="ellipse;whiteSpace=wrap;html=1;align=center;rotation=0;" vertex="1" parent="1">
          <mxGeometry x="310" y="100" width="80" height="40" as="geometry" />
        </mxCell>
        <mxCell id="NptklRIdB0JCrg16FRd6-42" value="jurusan" style="ellipse;whiteSpace=wrap;html=1;align=center;rotation=0;" vertex="1" parent="1">
          <mxGeometry x="320" y="30" width="80" height="40" as="geometry" />
        </mxCell>
        <mxCell id="NptklRIdB0JCrg16FRd6-43" value="nama" style="ellipse;whiteSpace=wrap;html=1;align=center;rotation=0;" vertex="1" parent="1">
          <mxGeometry x="470" y="100" width="80" height="40" as="geometry" />
        </mxCell>
        <mxCell id="NptklRIdB0JCrg16FRd6-45" value="nama_blkng" style="ellipse;whiteSpace=wrap;html=1;align=center;rotation=0;" vertex="1" parent="1">
          <mxGeometry x="190" y="60" width="90" height="40" as="geometry" />
        </mxCell>
        <mxCell id="NptklRIdB0JCrg16FRd6-46" value="jurusan" style="ellipse;whiteSpace=wrap;html=1;align=center;rotation=0;" vertex="1" parent="1">
          <mxGeometry x="-20" y="170" width="70" height="40" as="geometry" />
        </mxCell>
        <mxCell id="NptklRIdB0JCrg16FRd6-48" value="alamat" style="ellipse;whiteSpace=wrap;html=1;align=center;rotation=0;" vertex="1" parent="1">
          <mxGeometry y="220" width="70" height="40" as="geometry" />
        </mxCell>
        <mxCell id="NptklRIdB0JCrg16FRd6-49" value="nama" style="ellipse;whiteSpace=wrap;html=1;align=center;rotation=0;" vertex="1" parent="1">
          <mxGeometry x="120" y="90" width="70" height="40" as="geometry" />
        </mxCell>
        <mxCell id="NptklRIdB0JCrg16FRd6-51" value="" style="endArrow=none;html=1;rounded=0;entryX=0.5;entryY=1;entryDx=0;entryDy=0;" edge="1" parent="1" source="NptklRIdB0JCrg16FRd6-7" target="NptklRIdB0JCrg16FRd6-49">
          <mxGeometry relative="1" as="geometry">
            <mxPoint x="110" y="150" as="sourcePoint" />
            <mxPoint x="270" y="150" as="targetPoint" />
          </mxGeometry>
        </mxCell>
        <mxCell id="NptklRIdB0JCrg16FRd6-52" value="nim" style="ellipse;whiteSpace=wrap;html=1;align=center;fontStyle=4;" vertex="1" parent="1">
          <mxGeometry x="-10" y="120" width="67.5" height="40" as="geometry" />
        </mxCell>
        <mxCell id="NptklRIdB0JCrg16FRd6-53" value="nim" style="ellipse;whiteSpace=wrap;html=1;align=center;fontStyle=4;" vertex="1" parent="1">
          <mxGeometry x="470" y="30" width="90" height="40" as="geometry" />
        </mxCell>
        <mxCell id="NptklRIdB0JCrg16FRd6-56" value="" style="endArrow=none;html=1;rounded=0;exitX=1;exitY=1;exitDx=0;exitDy=0;entryX=0.5;entryY=0;entryDx=0;entryDy=0;" edge="1" parent="1" source="NptklRIdB0JCrg16FRd6-42" target="NptklRIdB0JCrg16FRd6-2">
          <mxGeometry relative="1" as="geometry">
            <mxPoint x="280" y="150" as="sourcePoint" />
            <mxPoint x="440" y="150" as="targetPoint" />
          </mxGeometry>
        </mxCell>
        <mxCell id="NptklRIdB0JCrg16FRd6-60" value="" style="endArrow=none;html=1;rounded=0;entryX=0;entryY=1;entryDx=0;entryDy=0;exitX=0.5;exitY=0;exitDx=0;exitDy=0;" edge="1" parent="1" source="NptklRIdB0JCrg16FRd6-2" target="NptklRIdB0JCrg16FRd6-53">
          <mxGeometry relative="1" as="geometry">
            <mxPoint x="430" y="150" as="sourcePoint" />
            <mxPoint x="590" y="150" as="targetPoint" />
          </mxGeometry>
        </mxCell>
        <mxCell id="NptklRIdB0JCrg16FRd6-61" value="" style="endArrow=none;html=1;rounded=0;entryX=0.5;entryY=0;entryDx=0;entryDy=0;" edge="1" parent="1" source="NptklRIdB0JCrg16FRd6-41" target="NptklRIdB0JCrg16FRd6-2">
          <mxGeometry relative="1" as="geometry">
            <mxPoint x="280" y="150" as="sourcePoint" />
            <mxPoint x="430" y="150" as="targetPoint" />
          </mxGeometry>
        </mxCell>
        <mxCell id="NptklRIdB0JCrg16FRd6-62" value="" style="endArrow=none;html=1;rounded=0;entryX=0.25;entryY=0.875;entryDx=0;entryDy=0;entryPerimeter=0;exitX=0.5;exitY=0;exitDx=0;exitDy=0;" edge="1" parent="1" source="NptklRIdB0JCrg16FRd6-2" target="NptklRIdB0JCrg16FRd6-43">
          <mxGeometry relative="1" as="geometry">
            <mxPoint x="430" y="150" as="sourcePoint" />
            <mxPoint x="590" y="150" as="targetPoint" />
          </mxGeometry>
        </mxCell>
        <mxCell id="NptklRIdB0JCrg16FRd6-63" value="jurusan" style="ellipse;whiteSpace=wrap;html=1;align=center;" vertex="1" parent="1">
          <mxGeometry x="740" y="15" width="77" height="50" as="geometry" />
        </mxCell>
        <mxCell id="NptklRIdB0JCrg16FRd6-64" value="nomor-anggota" style="ellipse;whiteSpace=wrap;html=1;align=center;fontStyle=4;" vertex="1" parent="1">
          <mxGeometry x="600" y="100" width="90" height="40" as="geometry" />
        </mxCell>
        <mxCell id="NptklRIdB0JCrg16FRd6-65" value="masa_berlalu" style="ellipse;whiteSpace=wrap;html=1;align=center;" vertex="1" parent="1">
          <mxGeometry x="744" y="100" width="83" height="40" as="geometry" />
        </mxCell>
        <mxCell id="NptklRIdB0JCrg16FRd6-66" value="nama" style="ellipse;whiteSpace=wrap;html=1;align=center;" vertex="1" parent="1">
          <mxGeometry x="600" y="20" width="80" height="40" as="geometry" />
        </mxCell>
        <mxCell id="NptklRIdB0JCrg16FRd6-67" value="" style="endArrow=none;html=1;rounded=0;exitX=1;exitY=1;exitDx=0;exitDy=0;entryX=0.44;entryY=0;entryDx=0;entryDy=0;entryPerimeter=0;" edge="1" parent="1" source="NptklRIdB0JCrg16FRd6-66" target="NptklRIdB0JCrg16FRd6-3">
          <mxGeometry relative="1" as="geometry">
            <mxPoint x="590" y="160" as="sourcePoint" />
            <mxPoint x="750" y="160" as="targetPoint" />
          </mxGeometry>
        </mxCell>
        <mxCell id="NptklRIdB0JCrg16FRd6-68" value="" style="endArrow=none;html=1;rounded=0;entryX=0.299;entryY=0.98;entryDx=0;entryDy=0;entryPerimeter=0;exitX=0.42;exitY=-0.025;exitDx=0;exitDy=0;exitPerimeter=0;" edge="1" parent="1" source="NptklRIdB0JCrg16FRd6-3" target="NptklRIdB0JCrg16FRd6-63">
          <mxGeometry relative="1" as="geometry">
            <mxPoint x="720" y="160" as="sourcePoint" />
            <mxPoint x="880" y="160" as="targetPoint" />
          </mxGeometry>
        </mxCell>
        <mxCell id="NptklRIdB0JCrg16FRd6-70" value="" style="endArrow=none;html=1;rounded=0;exitX=0.622;exitY=0.95;exitDx=0;exitDy=0;exitPerimeter=0;entryX=0.5;entryY=0;entryDx=0;entryDy=0;entryPerimeter=0;" edge="1" parent="1" source="NptklRIdB0JCrg16FRd6-64" target="NptklRIdB0JCrg16FRd6-3">
          <mxGeometry relative="1" as="geometry">
            <mxPoint x="560" y="160" as="sourcePoint" />
            <mxPoint x="720" y="160" as="targetPoint" />
          </mxGeometry>
        </mxCell>
        <mxCell id="NptklRIdB0JCrg16FRd6-71" value="" style="endArrow=none;html=1;rounded=0;entryX=0.313;entryY=1;entryDx=0;entryDy=0;entryPerimeter=0;" edge="1" parent="1" target="NptklRIdB0JCrg16FRd6-65">
          <mxGeometry relative="1" as="geometry">
            <mxPoint x="720" y="160" as="sourcePoint" />
            <mxPoint x="880" y="160" as="targetPoint" />
          </mxGeometry>
        </mxCell>
        <mxCell id="NptklRIdB0JCrg16FRd6-72" value="tanggal-kmbli" style="ellipse;whiteSpace=wrap;html=1;align=center;" vertex="1" parent="1">
          <mxGeometry x="540" y="310" width="100" height="40" as="geometry" />
        </mxCell>
        <mxCell id="NptklRIdB0JCrg16FRd6-73" value="kode-peminjaman" style="ellipse;whiteSpace=wrap;html=1;align=center;" vertex="1" parent="1">
          <mxGeometry x="550" y="230" width="100" height="40" as="geometry" />
        </mxCell>
        <mxCell id="NptklRIdB0JCrg16FRd6-74" value="tanggal-pinjam" style="ellipse;whiteSpace=wrap;html=1;align=center;" vertex="1" parent="1">
          <mxGeometry x="550" y="380" width="100" height="40" as="geometry" />
        </mxCell>
        <mxCell id="NptklRIdB0JCrg16FRd6-76" value="" style="endArrow=none;html=1;rounded=0;entryX=0.392;entryY=0.1;entryDx=0;entryDy=0;entryPerimeter=0;exitX=0.77;exitY=0.95;exitDx=0;exitDy=0;exitPerimeter=0;" edge="1" parent="1" source="NptklRIdB0JCrg16FRd6-73" target="NptklRIdB0JCrg16FRd6-12">
          <mxGeometry relative="1" as="geometry">
            <mxPoint x="600" y="270" as="sourcePoint" />
            <mxPoint x="760" y="270" as="targetPoint" />
          </mxGeometry>
        </mxCell>
        <mxCell id="NptklRIdB0JCrg16FRd6-77" value="" style="endArrow=none;html=1;rounded=0;entryX=0.425;entryY=0.083;entryDx=0;entryDy=0;entryPerimeter=0;exitX=1;exitY=0.5;exitDx=0;exitDy=0;" edge="1" parent="1" source="NptklRIdB0JCrg16FRd6-72" target="NptklRIdB0JCrg16FRd6-12">
          <mxGeometry relative="1" as="geometry">
            <mxPoint x="640" y="330" as="sourcePoint" />
            <mxPoint x="800" y="330" as="targetPoint" />
          </mxGeometry>
        </mxCell>
        <mxCell id="NptklRIdB0JCrg16FRd6-80" value="" style="endArrow=none;html=1;rounded=0;exitX=0.71;exitY=0.05;exitDx=0;exitDy=0;exitPerimeter=0;" edge="1" parent="1" source="NptklRIdB0JCrg16FRd6-74" target="NptklRIdB0JCrg16FRd6-12">
          <mxGeometry relative="1" as="geometry">
            <mxPoint x="520" y="370" as="sourcePoint" />
            <mxPoint x="680" y="370" as="targetPoint" />
          </mxGeometry>
        </mxCell>
        <mxCell id="NptklRIdB0JCrg16FRd6-81" value="nomor-anggota" style="ellipse;whiteSpace=wrap;html=1;align=center;fontStyle=4;" vertex="1" parent="1">
          <mxGeometry x="750" y="230" width="80" height="40" as="geometry" />
        </mxCell>
        <mxCell id="NptklRIdB0JCrg16FRd6-82" value="nomor-buku" style="ellipse;whiteSpace=wrap;html=1;align=center;fontStyle=4;" vertex="1" parent="1">
          <mxGeometry x="780" y="290" width="80" height="40" as="geometry" />
        </mxCell>
        <mxCell id="NptklRIdB0JCrg16FRd6-83" value="judul-buku" style="ellipse;whiteSpace=wrap;html=1;align=center;" vertex="1" parent="1">
          <mxGeometry x="810" y="350" width="80" height="40" as="geometry" />
        </mxCell>
        <mxCell id="NptklRIdB0JCrg16FRd6-84" value="denda" style="ellipse;whiteSpace=wrap;html=1;align=center;" vertex="1" parent="1">
          <mxGeometry x="800" y="410" width="90" height="40" as="geometry" />
        </mxCell>
        <mxCell id="NptklRIdB0JCrg16FRd6-85" value="" style="endArrow=none;html=1;rounded=0;exitX=0.625;exitY=0.167;exitDx=0;exitDy=0;exitPerimeter=0;entryX=0.5;entryY=1;entryDx=0;entryDy=0;" edge="1" parent="1" source="NptklRIdB0JCrg16FRd6-12" target="NptklRIdB0JCrg16FRd6-81">
          <mxGeometry relative="1" as="geometry">
            <mxPoint x="640" y="270" as="sourcePoint" />
            <mxPoint x="800" y="270" as="targetPoint" />
          </mxGeometry>
        </mxCell>
        <mxCell id="NptklRIdB0JCrg16FRd6-86" value="" style="endArrow=none;html=1;rounded=0;entryX=0.413;entryY=1;entryDx=0;entryDy=0;entryPerimeter=0;" edge="1" parent="1" source="NptklRIdB0JCrg16FRd6-12" target="NptklRIdB0JCrg16FRd6-82">
          <mxGeometry relative="1" as="geometry">
            <mxPoint x="760" y="340" as="sourcePoint" />
            <mxPoint x="910" y="340" as="targetPoint" />
          </mxGeometry>
        </mxCell>
        <mxCell id="NptklRIdB0JCrg16FRd6-87" value="" style="endArrow=none;html=1;rounded=0;exitX=1;exitY=1;exitDx=0;exitDy=0;entryX=0;entryY=1;entryDx=0;entryDy=0;" edge="1" parent="1" source="NptklRIdB0JCrg16FRd6-12" target="NptklRIdB0JCrg16FRd6-83">
          <mxGeometry relative="1" as="geometry">
            <mxPoint x="660" y="380" as="sourcePoint" />
            <mxPoint x="820" y="380" as="targetPoint" />
          </mxGeometry>
        </mxCell>
        <mxCell id="NptklRIdB0JCrg16FRd6-88" value="" style="endArrow=none;html=1;rounded=0;exitX=0.592;exitY=0.9;exitDx=0;exitDy=0;exitPerimeter=0;entryX=0.067;entryY=0.35;entryDx=0;entryDy=0;entryPerimeter=0;" edge="1" parent="1" source="NptklRIdB0JCrg16FRd6-12" target="NptklRIdB0JCrg16FRd6-84">
          <mxGeometry relative="1" as="geometry">
            <mxPoint x="650" y="430" as="sourcePoint" />
            <mxPoint x="810" y="430" as="targetPoint" />
          </mxGeometry>
        </mxCell>
        <mxCell id="NptklRIdB0JCrg16FRd6-89" value="judul-buku" style="ellipse;whiteSpace=wrap;html=1;align=center;" vertex="1" parent="1">
          <mxGeometry x="530" y="510" width="100" height="40" as="geometry" />
        </mxCell>
        <mxCell id="NptklRIdB0JCrg16FRd6-90" value="nomor buku" style="ellipse;whiteSpace=wrap;html=1;align=center;fontStyle=4;" vertex="1" parent="1">
          <mxGeometry x="550" y="580" width="100" height="40" as="geometry" />
        </mxCell>
        <mxCell id="NptklRIdB0JCrg16FRd6-92" value="tahun-terbit" style="ellipse;whiteSpace=wrap;html=1;align=center;" vertex="1" parent="1">
          <mxGeometry x="600" y="650" width="100" height="40" as="geometry" />
        </mxCell>
        <mxCell id="NptklRIdB0JCrg16FRd6-93" value="penerbit" style="ellipse;whiteSpace=wrap;html=1;align=center;" vertex="1" parent="1">
          <mxGeometry x="740" y="650" width="100" height="40" as="geometry" />
        </mxCell>
        <mxCell id="NptklRIdB0JCrg16FRd6-94" value="jenis-buku" style="ellipse;whiteSpace=wrap;html=1;align=center;" vertex="1" parent="1">
          <mxGeometry x="827" y="600" width="100" height="40" as="geometry" />
        </mxCell>
        <mxCell id="NptklRIdB0JCrg16FRd6-95" value="pengarang" style="ellipse;whiteSpace=wrap;html=1;align=center;" vertex="1" parent="1">
          <mxGeometry x="817" y="510" width="100" height="40" as="geometry" />
        </mxCell>
        <mxCell id="NptklRIdB0JCrg16FRd6-96" value="" style="endArrow=none;html=1;rounded=0;" edge="1" parent="1" source="NptklRIdB0JCrg16FRd6-89">
          <mxGeometry relative="1" as="geometry">
            <mxPoint x="640" y="530" as="sourcePoint" />
            <mxPoint x="680" y="530" as="targetPoint" />
          </mxGeometry>
        </mxCell>
        <mxCell id="NptklRIdB0JCrg16FRd6-97" value="" style="endArrow=none;html=1;rounded=0;exitX=0.92;exitY=0.275;exitDx=0;exitDy=0;exitPerimeter=0;entryX=0;entryY=1;entryDx=0;entryDy=0;" edge="1" parent="1" source="NptklRIdB0JCrg16FRd6-90" target="NptklRIdB0JCrg16FRd6-14">
          <mxGeometry relative="1" as="geometry">
            <mxPoint x="520" y="550" as="sourcePoint" />
            <mxPoint x="680" y="550" as="targetPoint" />
          </mxGeometry>
        </mxCell>
        <mxCell id="NptklRIdB0JCrg16FRd6-98" value="" style="endArrow=none;html=1;rounded=0;entryX=0.34;entryY=0.95;entryDx=0;entryDy=0;entryPerimeter=0;exitX=0.61;exitY=-0.05;exitDx=0;exitDy=0;exitPerimeter=0;" edge="1" parent="1" source="NptklRIdB0JCrg16FRd6-92" target="NptklRIdB0JCrg16FRd6-14">
          <mxGeometry relative="1" as="geometry">
            <mxPoint x="650" y="650" as="sourcePoint" />
            <mxPoint x="810" y="650" as="targetPoint" />
          </mxGeometry>
        </mxCell>
        <mxCell id="NptklRIdB0JCrg16FRd6-99" value="" style="endArrow=none;html=1;rounded=0;exitX=0.5;exitY=1;exitDx=0;exitDy=0;entryX=0.32;entryY=-0.025;entryDx=0;entryDy=0;entryPerimeter=0;" edge="1" parent="1" source="NptklRIdB0JCrg16FRd6-14" target="NptklRIdB0JCrg16FRd6-93">
          <mxGeometry relative="1" as="geometry">
            <mxPoint x="720" y="550" as="sourcePoint" />
            <mxPoint x="780" y="660" as="targetPoint" />
          </mxGeometry>
        </mxCell>
        <mxCell id="NptklRIdB0JCrg16FRd6-100" value="" style="endArrow=none;html=1;rounded=0;exitX=0.75;exitY=1;exitDx=0;exitDy=0;entryX=0;entryY=0;entryDx=0;entryDy=0;" edge="1" parent="1" source="NptklRIdB0JCrg16FRd6-14" target="NptklRIdB0JCrg16FRd6-94">
          <mxGeometry relative="1" as="geometry">
            <mxPoint x="690" y="600" as="sourcePoint" />
            <mxPoint x="850" y="600" as="targetPoint" />
          </mxGeometry>
        </mxCell>
        <mxCell id="NptklRIdB0JCrg16FRd6-101" value="" style="endArrow=none;html=1;rounded=0;entryX=0;entryY=1;entryDx=0;entryDy=0;exitX=1;exitY=0.5;exitDx=0;exitDy=0;" edge="1" parent="1" source="NptklRIdB0JCrg16FRd6-14" target="NptklRIdB0JCrg16FRd6-95">
          <mxGeometry relative="1" as="geometry">
            <mxPoint x="780" y="530" as="sourcePoint" />
            <mxPoint x="940" y="530" as="targetPoint" />
          </mxGeometry>
        </mxCell>
      </root>
    </mxGraphModel>
  </diagram>
</mxfile>
